<svg version="1.1" id="Layer_1" xmlns="http://www.w3.org/2000/svg" xmlns:xlink="http://www.w3.org/1999/xlink" x="0px" y="0px"
	 width="100%" viewBox="0 0 500 500" enable-background="new 0 0 500 500" xml:space="preserve">
<path fill="#1D1F1C" opacity="1.000000" stroke="none" 
	d="
M245.000000,501.000000 
	C163.333359,501.000000 82.166702,501.000000 1.000044,501.000000 
	C1.000029,334.333405 1.000029,167.666779 1.000015,1.000133 
	C167.666565,1.000089 334.333130,1.000089 500.999756,1.000044 
	C500.999847,167.666519 500.999847,334.333038 500.999939,500.999786 
	C415.833344,501.000000 330.666656,501.000000 245.000000,501.000000 
M235.036972,368.594604 
	C235.116455,366.763977 235.369232,364.921265 235.242615,363.105011 
	C234.876404,357.851166 236.873703,355.139130 242.344971,353.808014 
	C248.129074,352.400879 253.545944,349.484253 259.769501,346.965424 
	C254.383224,339.847565 249.562836,333.898407 245.242462,327.605927 
	C242.761169,323.992065 240.539551,323.268494 236.268951,324.876404 
	C200.475098,338.352875 160.011078,323.585449 140.847717,290.325531 
	C121.594337,256.909424 129.154922,214.076447 159.120148,190.061142 
	C182.531708,171.298187 208.774826,167.276779 237.170197,176.997681 
	C238.832031,177.566605 241.768188,178.070007 242.461853,177.234497 
	C248.267456,170.241623 253.686646,162.927933 259.943573,154.770615 
	C252.842453,152.012970 246.823608,149.215927 240.522095,147.399567 
	C236.695801,146.296692 235.529312,144.419144 235.393738,140.810608 
	C235.162552,134.657181 234.631409,128.514328 234.189301,122.369713 
	C233.755920,116.346283 231.393921,114.053909 225.328125,114.016785 
	C214.664932,113.951508 204.000824,113.954437 193.337570,114.014915 
	C187.016281,114.050774 184.585876,116.407478 184.169403,122.642334 
	C183.736633,129.121140 183.243713,135.597488 182.938721,142.082520 
	C182.812561,144.765030 181.794907,146.074326 179.135498,147.052109 
	C171.816147,149.743240 164.561310,152.675995 157.510727,156.000473 
	C154.576080,157.384201 152.785629,157.157516 150.501282,155.021301 
	C145.881226,150.700836 141.024597,146.631439 136.226440,142.503937 
	C131.495667,138.434418 128.091675,138.533798 123.655678,142.931244 
	C116.200981,150.321136 108.782562,157.747910 101.382874,165.192947 
	C96.703506,169.900986 96.626617,172.978363 101.025749,178.118134 
	C105.141342,182.926620 109.186081,187.805344 113.505165,192.425842 
	C115.545227,194.608276 115.637123,196.280762 114.376534,198.991898 
	C111.087608,206.065338 108.023346,213.272079 105.416405,220.619705 
	C104.366623,223.578491 102.819870,224.511414 100.073029,224.672684 
	C93.590675,225.053253 87.112083,225.500900 80.634148,225.952591 
	C74.748718,226.362976 72.598541,228.495651 72.543236,234.438934 
	C72.442467,245.268204 72.454323,256.099457 72.529663,266.929077 
	C72.574562,273.383881 74.783897,275.576355 81.183128,275.971558 
	C87.498138,276.361633 93.808952,276.828827 100.127228,277.152649 
	C102.948410,277.297241 104.389824,278.369690 105.432632,281.268219 
	C108.073158,288.607574 111.125732,295.819763 114.426155,302.890106 
	C115.708916,305.638123 115.467064,307.293732 113.462852,309.450043 
	C109.043243,314.205048 104.863701,319.186798 100.667984,324.145233 
	C96.720139,328.810699 96.826241,332.019226 101.084854,336.320068 
	C108.587646,343.897369 116.131264,351.434723 123.703644,358.942505 
	C128.145004,363.346008 131.456863,363.414642 136.278717,359.273438 
	C141.079971,355.149963 145.947342,351.092438 150.561081,346.766357 
	C152.863754,344.607239 154.657913,344.473022 157.552277,345.852661 
	C164.440628,349.135986 171.490005,352.166168 178.695007,354.661346 
	C181.841248,355.750946 182.869034,357.218658 182.994629,360.261902 
	C183.262299,366.748169 183.723373,373.227997 184.197800,379.703705 
	C184.589935,385.056030 187.179352,387.825012 192.343811,387.890228 
	C203.671967,388.033264 215.003769,387.997925 226.332901,387.899994 
	C231.090485,387.858887 233.660263,385.139038 234.125793,380.476929 
	C234.489578,376.833771 234.712265,373.176544 235.036972,368.594604 
M309.369812,210.944794 
	C301.892395,210.913055 294.406525,210.645432 286.939850,210.913162 
	C278.792816,211.205322 273.755463,215.157410 273.168701,223.161072 
	C272.407837,233.539597 272.398865,244.058655 273.163300,254.436401 
	C273.769684,262.668274 278.998993,266.689636 287.279755,266.945068 
	C293.923218,267.149963 300.582245,267.142639 307.226562,266.954376 
	C316.177307,266.700836 321.330109,262.312866 321.894836,253.301834 
	C322.495392,243.719254 322.428162,234.047256 321.897217,224.456100 
	C321.457062,216.504898 317.963654,213.115448 309.369812,210.944794 
M161.545502,256.904694 
	C159.379196,256.905334 157.187775,257.116486 155.051926,256.861755 
	C150.940155,256.371399 150.417862,258.656403 150.421906,261.953522 
	C150.425949,265.252045 150.962677,267.221649 155.063293,267.098389 
	C164.220154,266.823090 173.391418,267.069092 182.555893,266.991425 
	C189.603561,266.931732 193.428558,263.523743 193.999313,256.493652 
	C194.334976,252.358978 194.315582,248.153336 193.989029,244.016464 
	C193.434845,236.995911 189.679184,233.491241 182.665710,233.277618 
	C177.005096,233.105179 171.319687,232.969650 165.674469,233.306686 
	C160.866058,233.593765 160.623001,230.887085 160.766602,227.364243 
	C160.901047,224.066086 160.065735,220.572372 165.539124,220.807434 
	C173.356583,221.143173 181.200638,220.804184 189.030914,220.919052 
	C193.164597,220.979691 192.872101,218.261047 192.923859,215.509186 
	C192.975586,212.759933 192.781891,210.580933 189.057251,210.643097 
	C179.728241,210.798782 170.392761,210.597610 161.065063,210.790527 
	C155.388992,210.907928 151.773178,213.746048 151.149628,219.369095 
	C150.551147,224.765762 150.661697,230.342560 151.290527,235.743561 
	C151.851944,240.565384 155.195816,243.347580 160.271423,243.439896 
	C165.435211,243.533813 170.600861,243.541504 175.765793,243.553146 
	C184.413269,243.572647 184.265121,243.559158 184.138824,252.081192 
	C184.083618,255.806580 182.632568,257.079163 179.028595,256.953094 
	C173.536270,256.760925 168.032227,256.903961 161.545502,256.904694 
M411.279205,243.735886 
	C414.925690,243.360596 417.140778,245.139786 418.782501,248.276535 
	C421.173096,252.843933 424.194641,257.109467 426.279694,261.800415 
	C428.337769,266.430695 431.509277,267.488159 436.157410,267.136658 
	C439.971222,266.848267 440.509003,265.572510 438.707489,262.511047 
	C433.908447,254.355652 429.150452,246.176086 424.283173,237.847092 
	C428.993561,229.397110 433.855988,220.674377 438.861755,211.694534 
	C429.586060,209.507339 428.883057,209.795746 425.009857,216.640778 
	C422.961334,220.261032 420.924408,223.887894 418.870087,227.504837 
	C415.298584,233.792953 412.789642,234.729477 404.934052,232.348648 
	C404.934052,225.449783 404.934052,218.369888 404.934052,211.420654 
	C395.444580,209.534561 394.985107,209.898590 394.984894,218.758377 
	C394.984528,233.082626 395.060242,247.407562 394.932312,261.730652 
	C394.900574,265.285492 395.409698,267.253143 399.765594,267.186279 
	C403.839600,267.123779 405.412811,266.038208 405.189728,261.809753 
	C404.878357,255.907883 405.111298,249.977280 405.111298,243.729233 
	C407.407928,243.729233 408.891754,243.729233 411.279205,243.735886 
M380.054596,211.534027 
	C370.483154,211.316376 360.906555,210.806015 351.341858,210.973770 
	C343.705322,211.107712 338.736145,214.965027 338.093292,222.575180 
	C337.203796,233.105560 337.082275,243.816772 337.944305,254.343063 
	C338.653992,263.009430 343.806671,266.757721 352.472168,266.960358 
	C360.452118,267.147034 368.443939,266.871307 376.421265,267.109497 
	C380.224976,267.223053 380.848114,265.339661 380.817291,262.221405 
	C380.786621,259.122345 380.685638,256.691132 376.402863,256.841248 
	C369.093262,257.097504 361.767151,256.839661 354.449310,256.920563 
	C349.961670,256.970184 347.416687,254.809586 347.311188,250.440872 
	C347.122620,242.633148 347.112305,234.812286 347.349426,227.006714 
	C347.473267,222.929306 349.786377,220.750992 354.178375,220.860199 
	C360.495056,221.017227 366.818848,220.888763 373.139587,220.885132 
	C381.154205,220.880539 381.336945,220.666611 380.054596,211.534027 
M227.998230,247.499039 
	C227.998871,252.495071 228.210480,257.502838 227.934052,262.483490 
	C227.709213,266.534271 229.704498,267.064636 233.083969,267.099396 
	C236.539032,267.134918 238.256699,266.476379 238.174881,262.471436 
	C237.947006,251.318283 238.097183,240.157394 238.097977,228.999573 
	C238.098175,226.404694 238.098007,223.809814 238.098007,220.881699 
	C243.482590,220.881699 248.142426,220.666901 252.772491,220.946091 
	C256.863495,221.192795 257.919128,219.390747 257.906372,215.640457 
	C257.894348,212.102509 256.929810,210.566986 253.078171,210.620728 
	C239.757980,210.806610 226.431625,210.820557 213.112091,210.613113 
	C209.212234,210.552368 208.325714,212.151108 208.309738,215.621948 
	C208.292831,219.301376 209.239410,221.216522 213.399948,220.951355 
	C218.137085,220.649429 222.908279,220.881546 227.998230,220.881546 
	C227.998230,229.897171 227.998230,238.198273 227.998230,247.499039 
z"/>
<path fill="#E2A62F" opacity="1.000000" stroke="none" 
	d="
M235.017303,369.060089 
	C234.712265,373.176544 234.489578,376.833771 234.125793,380.476929 
	C233.660263,385.139038 231.090485,387.858887 226.332901,387.899994 
	C215.003769,387.997925 203.671967,388.033264 192.343811,387.890228 
	C187.179352,387.825012 184.589935,385.056030 184.197800,379.703705 
	C183.723373,373.227997 183.262299,366.748169 182.994629,360.261902 
	C182.869034,357.218658 181.841248,355.750946 178.695007,354.661346 
	C171.490005,352.166168 164.440628,349.135986 157.552277,345.852661 
	C154.657913,344.473022 152.863754,344.607239 150.561081,346.766357 
	C145.947342,351.092438 141.079971,355.149963 136.278717,359.273438 
	C131.456863,363.414642 128.145004,363.346008 123.703644,358.942505 
	C116.131264,351.434723 108.587646,343.897369 101.084854,336.320068 
	C96.826241,332.019226 96.720139,328.810699 100.667984,324.145233 
	C104.863701,319.186798 109.043243,314.205048 113.462852,309.450043 
	C115.467064,307.293732 115.708916,305.638123 114.426155,302.890106 
	C111.125732,295.819763 108.073158,288.607574 105.432632,281.268219 
	C104.389824,278.369690 102.948410,277.297241 100.127228,277.152649 
	C93.808952,276.828827 87.498138,276.361633 81.183128,275.971558 
	C74.783897,275.576355 72.574562,273.383881 72.529663,266.929077 
	C72.454323,256.099457 72.442467,245.268204 72.543236,234.438934 
	C72.598541,228.495651 74.748718,226.362976 80.634148,225.952591 
	C87.112083,225.500900 93.590675,225.053253 100.073029,224.672684 
	C102.819870,224.511414 104.366623,223.578491 105.416405,220.619705 
	C108.023346,213.272079 111.087608,206.065338 114.376534,198.991898 
	C115.637123,196.280762 115.545227,194.608276 113.505165,192.425842 
	C109.186081,187.805344 105.141342,182.926620 101.025749,178.118134 
	C96.626617,172.978363 96.703506,169.900986 101.382874,165.192947 
	C108.782562,157.747910 116.200981,150.321136 123.655678,142.931244 
	C128.091675,138.533798 131.495667,138.434418 136.226440,142.503937 
	C141.024597,146.631439 145.881226,150.700836 150.501282,155.021301 
	C152.785629,157.157516 154.576080,157.384201 157.510727,156.000473 
	C164.561310,152.675995 171.816147,149.743240 179.135498,147.052109 
	C181.794907,146.074326 182.812561,144.765030 182.938721,142.082520 
	C183.243713,135.597488 183.736633,129.121140 184.169403,122.642334 
	C184.585876,116.407478 187.016281,114.050774 193.337570,114.014915 
	C204.000824,113.954437 214.664932,113.951508 225.328125,114.016785 
	C231.393921,114.053909 233.755920,116.346283 234.189301,122.369713 
	C234.631409,128.514328 235.162552,134.657181 235.393738,140.810608 
	C235.529312,144.419144 236.695801,146.296692 240.522095,147.399567 
	C246.823608,149.215927 252.842453,152.012970 259.943573,154.770615 
	C253.686646,162.927933 248.267456,170.241623 242.461853,177.234497 
	C241.768188,178.070007 238.832031,177.566605 237.170197,176.997681 
	C208.774826,167.276779 182.531708,171.298187 159.120148,190.061142 
	C129.154922,214.076447 121.594337,256.909424 140.847717,290.325531 
	C160.011078,323.585449 200.475098,338.352875 236.268951,324.876404 
	C240.539551,323.268494 242.761169,323.992065 245.242462,327.605927 
	C249.562836,333.898407 254.383224,339.847565 259.769501,346.965424 
	C253.545944,349.484253 248.129074,352.400879 242.344971,353.808014 
	C236.873703,355.139130 234.876404,357.851166 235.242615,363.105011 
	C235.369232,364.921265 235.116455,366.763977 235.017303,369.060089 
z"/>
<path fill="#DEA32F" opacity="1.000000" stroke="none" 
	d="
M309.787109,210.983871 
	C317.963654,213.115448 321.457062,216.504898 321.897217,224.456100 
	C322.428162,234.047256 322.495392,243.719254 321.894836,253.301834 
	C321.330109,262.312866 316.177307,266.700836 307.226562,266.954376 
	C300.582245,267.142639 293.923218,267.149963 287.279755,266.945068 
	C278.998993,266.689636 273.769684,262.668274 273.163300,254.436401 
	C272.398865,244.058655 272.407837,233.539597 273.168701,223.161072 
	C273.755463,215.157410 278.792816,211.205322 286.939850,210.913162 
	C294.406525,210.645432 301.892395,210.913055 309.787109,210.983871 
M300.381104,256.913879 
	C301.543762,256.912964 302.706635,256.926849 303.869019,256.908661 
	C310.505798,256.804962 312.078094,255.396378 312.217896,248.670715 
	C312.362854,241.699677 312.221161,234.722153 312.169739,227.747726 
	C312.135345,223.082718 309.915253,220.733383 305.076477,220.862228 
	C299.931305,220.999222 294.776245,221.012527 289.631958,220.860413 
	C285.057007,220.725128 282.739471,222.874023 282.636444,227.309830 
	C282.470703,234.443710 282.230408,241.589890 282.475403,248.715271 
	C282.712555,255.613617 284.341217,256.858856 291.449066,256.909821 
	C294.106384,256.928864 296.763977,256.913544 300.381104,256.913879 
z"/>
<path fill="#DDA32E" opacity="1.000000" stroke="none" 
	d="
M162.039337,256.904694 
	C168.032227,256.903961 173.536270,256.760925 179.028595,256.953094 
	C182.632568,257.079163 184.083618,255.806580 184.138824,252.081192 
	C184.265121,243.559158 184.413269,243.572647 175.765793,243.553146 
	C170.600861,243.541504 165.435211,243.533813 160.271423,243.439896 
	C155.195816,243.347580 151.851944,240.565384 151.290527,235.743561 
	C150.661697,230.342560 150.551147,224.765762 151.149628,219.369095 
	C151.773178,213.746048 155.388992,210.907928 161.065063,210.790527 
	C170.392761,210.597610 179.728241,210.798782 189.057251,210.643097 
	C192.781891,210.580933 192.975586,212.759933 192.923859,215.509186 
	C192.872101,218.261047 193.164597,220.979691 189.030914,220.919052 
	C181.200638,220.804184 173.356583,221.143173 165.539124,220.807434 
	C160.065735,220.572372 160.901047,224.066086 160.766602,227.364243 
	C160.623001,230.887085 160.866058,233.593765 165.674469,233.306686 
	C171.319687,232.969650 177.005096,233.105179 182.665710,233.277618 
	C189.679184,233.491241 193.434845,236.995911 193.989029,244.016464 
	C194.315582,248.153336 194.334976,252.358978 193.999313,256.493652 
	C193.428558,263.523743 189.603561,266.931732 182.555893,266.991425 
	C173.391418,267.069092 164.220154,266.823090 155.063293,267.098389 
	C150.962677,267.221649 150.425949,265.252045 150.421906,261.953522 
	C150.417862,258.656403 150.940155,256.371399 155.051926,256.861755 
	C157.187775,257.116486 159.379196,256.905334 162.039337,256.904694 
z"/>
<path fill="#E0A52F" opacity="1.000000" stroke="none" 
	d="
M410.827393,243.732559 
	C408.891754,243.729233 407.407928,243.729233 405.111298,243.729233 
	C405.111298,249.977280 404.878357,255.907883 405.189728,261.809753 
	C405.412811,266.038208 403.839600,267.123779 399.765594,267.186279 
	C395.409698,267.253143 394.900574,265.285492 394.932312,261.730652 
	C395.060242,247.407562 394.984528,233.082626 394.984894,218.758377 
	C394.985107,209.898590 395.444580,209.534561 404.934052,211.420654 
	C404.934052,218.369888 404.934052,225.449783 404.934052,232.348648 
	C412.789642,234.729477 415.298584,233.792953 418.870087,227.504837 
	C420.924408,223.887894 422.961334,220.261032 425.009857,216.640778 
	C428.883057,209.795746 429.586060,209.507339 438.861755,211.694534 
	C433.855988,220.674377 428.993561,229.397110 424.283173,237.847092 
	C429.150452,246.176086 433.908447,254.355652 438.707489,262.511047 
	C440.509003,265.572510 439.971222,266.848267 436.157410,267.136658 
	C431.509277,267.488159 428.337769,266.430695 426.279694,261.800415 
	C424.194641,257.109467 421.173096,252.843933 418.782501,248.276535 
	C417.140778,245.139786 414.925690,243.360596 410.827393,243.732559 
z"/>
<path fill="#DFA52F" opacity="1.000000" stroke="none" 
	d="
M380.249725,211.908096 
	C381.336945,220.666611 381.154205,220.880539 373.139587,220.885132 
	C366.818848,220.888763 360.495056,221.017227 354.178375,220.860199 
	C349.786377,220.750992 347.473267,222.929306 347.349426,227.006714 
	C347.112305,234.812286 347.122620,242.633148 347.311188,250.440872 
	C347.416687,254.809586 349.961670,256.970184 354.449310,256.920563 
	C361.767151,256.839661 369.093262,257.097504 376.402863,256.841248 
	C380.685638,256.691132 380.786621,259.122345 380.817291,262.221405 
	C380.848114,265.339661 380.224976,267.223053 376.421265,267.109497 
	C368.443939,266.871307 360.452118,267.147034 352.472168,266.960358 
	C343.806671,266.757721 338.653992,263.009430 337.944305,254.343063 
	C337.082275,243.816772 337.203796,233.105560 338.093292,222.575180 
	C338.736145,214.965027 343.705322,211.107712 351.341858,210.973770 
	C360.906555,210.806015 370.483154,211.316376 380.249725,211.908096 
z"/>
<path fill="#E0A52F" opacity="1.000000" stroke="none" 
	d="
M227.998230,246.999207 
	C227.998230,238.198273 227.998230,229.897171 227.998230,220.881546 
	C222.908279,220.881546 218.137085,220.649429 213.399948,220.951355 
	C209.239410,221.216522 208.292831,219.301376 208.309738,215.621948 
	C208.325714,212.151108 209.212234,210.552368 213.112091,210.613113 
	C226.431625,210.820557 239.757980,210.806610 253.078171,210.620728 
	C256.929810,210.566986 257.894348,212.102509 257.906372,215.640457 
	C257.919128,219.390747 256.863495,221.192795 252.772491,220.946091 
	C248.142426,220.666901 243.482590,220.881699 238.098007,220.881699 
	C238.098007,223.809814 238.098175,226.404694 238.097977,228.999573 
	C238.097183,240.157394 237.947006,251.318283 238.174881,262.471436 
	C238.256699,266.476379 236.539032,267.134918 233.083969,267.099396 
	C229.704498,267.064636 227.709213,266.534271 227.934052,262.483490 
	C228.210480,257.502838 227.998871,252.495071 227.998230,246.999207 
z"/>
<path fill="#20211C" opacity="1.000000" stroke="none" 
	d="
M299.901276,256.913879 
	C296.763977,256.913544 294.106384,256.928864 291.449066,256.909821 
	C284.341217,256.858856 282.712555,255.613617 282.475403,248.715271 
	C282.230408,241.589890 282.470703,234.443710 282.636444,227.309830 
	C282.739471,222.874023 285.057007,220.725128 289.631958,220.860413 
	C294.776245,221.012527 299.931305,220.999222 305.076477,220.862228 
	C309.915253,220.733383 312.135345,223.082718 312.169739,227.747726 
	C312.221161,234.722153 312.362854,241.699677 312.217896,248.670715 
	C312.078094,255.396378 310.505798,256.804962 303.869019,256.908661 
	C302.706635,256.926849 301.543762,256.912964 299.901276,256.913879 
z"/>
</svg>